<?xml version="1.0" encoding="UTF-8"?>
<svg xmlns="http://www.w3.org/2000/svg" xmlns:xlink="http://www.w3.org/1999/xlink" viewBox="0 0 185.05 73.11">
  <defs>
    <style>
      .cls-1 {
        fill: #14b1e7;
      }

      .cls-2 {
        fill: #231f20;
      }

      .cls-3 {
        fill: url(#Degradado_sin_nombre_20);
        opacity: .35;
      }

      .cls-3, .cls-4 {
        mix-blend-mode: multiply;
      }

      .cls-5 {
        stroke: #006991;
      }

      .cls-5, .cls-6 {
        fill: #006991;
        stroke-miterlimit: 10;
        stroke-width: .25px;
      }

      .cls-6 {
        stroke: #3361ac;
      }

      .cls-4 {
        fill: url(#Degradado_sin_nombre_35-10);
      }

      .cls-7 {
        fill: url(#Degradado_sin_nombre_62);
      }

      .cls-8 {
        fill: url(#Degradado_sin_nombre_35);
      }

      .cls-9 {
        fill: url(#Degradado_sin_nombre_15);
      }

      .cls-10 {
        isolation: isolate;
      }

      .cls-11 {
        fill: url(#Degradado_sin_nombre_62-9);
      }

      .cls-12 {
        fill: url(#Degradado_sin_nombre_62-5);
      }

      .cls-13 {
        fill: url(#Degradado_sin_nombre_62-8);
      }

      .cls-14 {
        fill: url(#Degradado_sin_nombre_62-7);
      }

      .cls-15 {
        fill: url(#Degradado_sin_nombre_62-2);
      }

      .cls-16 {
        fill: url(#Degradado_sin_nombre_62-4);
      }

      .cls-17 {
        fill: url(#Degradado_sin_nombre_62-3);
      }

      .cls-18 {
        fill: url(#Degradado_sin_nombre_62-6);
      }

      .cls-19 {
        fill: url(#Degradado_sin_nombre_35-3);
      }

      .cls-20 {
        fill: url(#Degradado_sin_nombre_35-2);
      }

      .cls-21 {
        fill: url(#Degradado_sin_nombre_35-5);
      }

      .cls-22 {
        fill: url(#Degradado_sin_nombre_35-4);
      }

      .cls-23 {
        fill: url(#Degradado_sin_nombre_35-6);
      }

      .cls-24 {
        fill: url(#Degradado_sin_nombre_35-7);
      }

      .cls-25 {
        fill: url(#Degradado_sin_nombre_35-9);
      }

      .cls-26 {
        fill: url(#Degradado_sin_nombre_35-8);
      }

      .cls-27 {
        fill: url(#Degradado_sin_nombre_15-8);
      }

      .cls-28 {
        fill: url(#Degradado_sin_nombre_15-7);
      }

      .cls-29 {
        fill: url(#Degradado_sin_nombre_15-2);
      }

      .cls-30 {
        fill: url(#Degradado_sin_nombre_15-5);
      }

      .cls-31 {
        fill: url(#Degradado_sin_nombre_15-3);
      }

      .cls-32 {
        fill: url(#Degradado_sin_nombre_15-6);
      }

      .cls-33 {
        fill: url(#Degradado_sin_nombre_15-9);
      }

      .cls-34 {
        fill: url(#Degradado_sin_nombre_15-4);
      }
    </style>
    <radialGradient id="Degradado_sin_nombre_62" data-name="Degradado sin nombre 62" cx="577.04" cy="193.95" fx="577.04" fy="193.95" r="9.68" gradientTransform="translate(-108.47 572.79) rotate(-83.81)" gradientUnits="userSpaceOnUse">
      <stop offset="0" stop-color="#fff"/>
      <stop offset=".67" stop-color="#c7c8ca"/>
      <stop offset="1" stop-color="#9d9fa2"/>
    </radialGradient>
    <radialGradient id="Degradado_sin_nombre_35" data-name="Degradado sin nombre 35" cx="575.31" cy="169.88" fx="575.31" fy="169.88" r="9.68" gradientTransform="translate(-108.47 572.79) rotate(-83.81)" gradientUnits="userSpaceOnUse">
      <stop offset="0" stop-color="#fff"/>
      <stop offset=".67" stop-color="#a7a9ac"/>
      <stop offset="1" stop-color="#77787b"/>
    </radialGradient>
    <radialGradient id="Degradado_sin_nombre_35-2" data-name="Degradado sin nombre 35" cx="556" cy="173.26" fx="556" fy="173.26" r="2.6" xlink:href="#Degradado_sin_nombre_35"/>
    <radialGradient id="Degradado_sin_nombre_15" data-name="Degradado sin nombre 15" cx="129" cy="6.82" fx="129" fy="6.82" r="4.74" gradientTransform="translate(-.93 46.61) rotate(-8.03)" gradientUnits="userSpaceOnUse">
      <stop offset="0" stop-color="#fff"/>
      <stop offset=".39" stop-color="#00b3e8"/>
      <stop offset="1" stop-color="#007abf"/>
    </radialGradient>
    <radialGradient id="Degradado_sin_nombre_35-3" data-name="Degradado sin nombre 35" cx="551.53" cy="180.01" fx="551.53" fy="180.01" r="2.6" xlink:href="#Degradado_sin_nombre_35"/>
    <radialGradient id="Degradado_sin_nombre_35-4" data-name="Degradado sin nombre 35" cx="546.12" cy="174.07" fx="546.12" fy="174.07" r="2.6" xlink:href="#Degradado_sin_nombre_35"/>
    <radialGradient id="Degradado_sin_nombre_15-2" data-name="Degradado sin nombre 15" cx="127.36" cy="16.59" fx="127.36" fy="16.59" r="4.74" xlink:href="#Degradado_sin_nombre_15"/>
    <radialGradient id="Degradado_sin_nombre_35-5" data-name="Degradado sin nombre 35" cx="547.47" cy="186.48" fx="547.47" fy="186.48" r="2.6" xlink:href="#Degradado_sin_nombre_35"/>
    <radialGradient id="Degradado_sin_nombre_15-3" data-name="Degradado sin nombre 15" cx="139.71" cy="18.33" fx="139.71" fy="18.33" r="4.74" xlink:href="#Degradado_sin_nombre_15"/>
    <radialGradient id="Degradado_sin_nombre_35-6" data-name="Degradado sin nombre 35" cx="541.79" cy="181.06" fx="541.79" fy="181.06" r="2.6" xlink:href="#Degradado_sin_nombre_35"/>
    <radialGradient id="Degradado_sin_nombre_15-4" data-name="Degradado sin nombre 15" cx="133.07" cy="22.5" fx="133.07" fy="22.5" r="4.74" xlink:href="#Degradado_sin_nombre_15"/>
    <radialGradient id="Degradado_sin_nombre_62-2" data-name="Degradado sin nombre 62" cx="546.59" cy="180.54" fx="546.59" fy="180.54" r="2.6" xlink:href="#Degradado_sin_nombre_62"/>
    <radialGradient id="Degradado_sin_nombre_62-3" data-name="Degradado sin nombre 62" cx="542.26" cy="187.53" fx="542.26" fy="187.53" r="2.6" xlink:href="#Degradado_sin_nombre_62"/>
    <radialGradient id="Degradado_sin_nombre_62-4" data-name="Degradado sin nombre 62" cx="556.46" cy="179.73" fx="556.46" fy="179.73" r="2.6" xlink:href="#Degradado_sin_nombre_62"/>
    <radialGradient id="Degradado_sin_nombre_15-5" data-name="Degradado sin nombre 15" cx="134.45" cy="12.81" fx="134.45" fy="12.81" xlink:href="#Degradado_sin_nombre_15"/>
    <radialGradient id="Degradado_sin_nombre_62-5" data-name="Degradado sin nombre 62" cx="551.99" cy="186.48" fx="551.99" fy="186.48" r="2.6" xlink:href="#Degradado_sin_nombre_62"/>
    <radialGradient id="Degradado_sin_nombre_35-7" data-name="Degradado sin nombre 35" cx="552.82" cy="191.92" fx="552.82" fy="191.92" r="2.6" xlink:href="#Degradado_sin_nombre_35"/>
    <radialGradient id="Degradado_sin_nombre_62-6" data-name="Degradado sin nombre 62" cx="547.93" cy="192.95" fx="547.93" fy="192.95" r="2.6" xlink:href="#Degradado_sin_nombre_62"/>
    <radialGradient id="Degradado_sin_nombre_35-8" data-name="Degradado sin nombre 35" cx="543.14" cy="193.47" fx="543.14" fy="193.47" r="2.6" xlink:href="#Degradado_sin_nombre_35"/>
    <radialGradient id="Degradado_sin_nombre_15-6" data-name="Degradado sin nombre 15" cx="145.43" cy="24.24" fx="145.43" fy="24.24" xlink:href="#Degradado_sin_nombre_15"/>
    <radialGradient id="Degradado_sin_nombre_62-7" data-name="Degradado sin nombre 62" cx="543.6" cy="199.94" fx="543.6" fy="199.94" r="2.6" xlink:href="#Degradado_sin_nombre_62"/>
    <radialGradient id="Degradado_sin_nombre_35-9" data-name="Degradado sin nombre 35" cx="557.26" cy="184.92" fx="557.26" fy="184.92" r="2.6" xlink:href="#Degradado_sin_nombre_35"/>
    <radialGradient id="Degradado_sin_nombre_15-7" data-name="Degradado sin nombre 15" cx="140.61" cy="8.46" fx="140.61" fy="8.46" r="4.74" xlink:href="#Degradado_sin_nombre_15"/>
    <radialGradient id="Degradado_sin_nombre_15-8" data-name="Degradado sin nombre 15" cx="146.3" cy="14.48" fx="146.3" fy="14.48" r="4.74" xlink:href="#Degradado_sin_nombre_15"/>
    <radialGradient id="Degradado_sin_nombre_62-8" data-name="Degradado sin nombre 62" cx="553.29" cy="198.39" fx="553.29" fy="198.39" r="2.6" xlink:href="#Degradado_sin_nombre_62"/>
    <radialGradient id="Degradado_sin_nombre_62-9" data-name="Degradado sin nombre 62" cx="557.72" cy="191.39" fx="557.72" fy="191.39" r="2.6" xlink:href="#Degradado_sin_nombre_62"/>
    <radialGradient id="Degradado_sin_nombre_35-10" data-name="Degradado sin nombre 35" cx="128.55" cy="20.53" fx="128.55" fy="20.53" r="6.87" gradientTransform="matrix(1,0,0,1,0,0)" xlink:href="#Degradado_sin_nombre_35"/>
    <radialGradient id="Degradado_sin_nombre_15-9" data-name="Degradado sin nombre 15" cx="142.61" cy="-20.25" fx="142.61" fy="-20.25" r="17.63" xlink:href="#Degradado_sin_nombre_15"/>
    <radialGradient id="Degradado_sin_nombre_20" data-name="Degradado sin nombre 20" cx="31.03" cy="787.61" fx="31.03" fy="787.61" r="3.21" gradientTransform="translate(-343.77 -1381.28) scale(15.44 1.84)" gradientUnits="userSpaceOnUse">
      <stop offset="0" stop-color="#006991"/>
      <stop offset=".03" stop-color="#15759a"/>
      <stop offset=".1" stop-color="#4591af"/>
      <stop offset=".17" stop-color="#71abc2"/>
      <stop offset=".25" stop-color="#97c2d2"/>
      <stop offset=".33" stop-color="#b7d5e0"/>
      <stop offset=".42" stop-color="#d1e4eb"/>
      <stop offset=".52" stop-color="#e6f0f4"/>
      <stop offset=".63" stop-color="#f4f8fa"/>
      <stop offset=".77" stop-color="#fcfdfd"/>
      <stop offset="1" stop-color="#fff"/>
    </radialGradient>
  </defs>
  <g class="cls-10">
    <g id="Layer_2" data-name="Layer 2">
      <g id="Sombra">
        <g>
          <g>
            <path class="cls-7" d="m149.27,15.22c4.08.47,7.06,4.17,6.64,8.27-.41,4.1-4.06,7.03-8.15,6.54-4.07-.49-7.03-4.2-6.61-8.28.42-4.08,4.04-7,8.11-6.53Z"/>
            <path class="cls-8" d="m125.16,14.34c4.08.47,7.06,4.17,6.64,8.27-.41,4.1-4.06,7.03-8.15,6.54-4.07-.49-7.03-4.2-6.61-8.28.42-4.08,4.04-7,8.11-6.53Z"/>
            <path class="cls-20" d="m124.45,37.41c1.1.13,1.9,1.12,1.79,2.22-.11,1.1-1.09,1.89-2.19,1.76-1.09-.13-1.89-1.13-1.78-2.23.11-1.1,1.09-1.88,2.18-1.76Z"/>
            <path class="cls-9" d="m127.87,33.8c1.83.38,3.03,2.18,2.68,4.03-.36,1.85-2.13,3.03-3.97,2.64-1.83-.39-3.02-2.19-2.66-4.03.36-1.83,2.12-3.01,3.95-2.63Z"/>
            <path class="cls-19" d="m130.68,42.58c1.1.13,1.9,1.12,1.79,2.22-.11,1.1-1.09,1.89-2.19,1.76-1.09-.13-1.89-1.13-1.78-2.23.11-1.1,1.09-1.88,2.18-1.76Z"/>
            <path class="cls-22" d="m124.19,47.32c1.1.13,1.9,1.12,1.79,2.22-.11,1.1-1.09,1.89-2.19,1.76-1.09-.13-1.89-1.13-1.78-2.23.11-1.1,1.09-1.88,2.18-1.76Z"/>
            <path class="cls-29" d="m127.61,43.7c1.83.38,3.03,2.18,2.68,4.03-.36,1.85-2.13,3.03-3.97,2.64-1.83-.39-3.02-2.19-2.66-4.03.36-1.83,2.12-3.01,3.95-2.63Z"/>
            <path class="cls-21" d="m136.67,47.32c1.1.13,1.9,1.12,1.79,2.22-.11,1.1-1.09,1.89-2.19,1.76-1.09-.13-1.89-1.13-1.78-2.23.11-1.1,1.09-1.88,2.18-1.76Z"/>
            <path class="cls-31" d="m140.09,43.7c1.83.38,3.03,2.18,2.68,4.03-.36,1.85-2.13,3.03-3.97,2.64-1.83-.39-3.02-2.19-2.66-4.03.36-1.83,2.12-3.01,3.95-2.63Z"/>
            <path class="cls-23" d="m130.68,52.37c1.1.13,1.9,1.12,1.79,2.22-.11,1.1-1.09,1.89-2.19,1.76-1.09-.13-1.89-1.13-1.78-2.23.11-1.1,1.09-1.88,2.18-1.76Z"/>
            <path class="cls-34" d="m134.1,48.76c1.83.38,3.03,2.18,2.68,4.03-.36,1.85-2.13,3.03-3.97,2.64-1.83-.39-3.02-2.19-2.66-4.03.36-1.83,2.12-3.01,3.95-2.63Z"/>
            <path class="cls-15" d="m130.68,47.55c1.1.13,1.9,1.12,1.79,2.22-.11,1.1-1.09,1.89-2.19,1.76-1.09-.13-1.89-1.13-1.78-2.23.11-1.1,1.09-1.88,2.18-1.76Z"/>
            <path class="cls-17" d="m137.16,52.61c1.1.13,1.9,1.12,1.79,2.22-.11,1.1-1.09,1.89-2.19,1.76-1.09-.13-1.89-1.13-1.78-2.23.11-1.1,1.09-1.88,2.18-1.76Z"/>
            <path class="cls-16" d="m130.93,37.65c1.1.13,1.9,1.12,1.79,2.22-.11,1.1-1.09,1.89-2.19,1.76-1.09-.13-1.89-1.13-1.78-2.23.11-1.1,1.09-1.88,2.18-1.76Z"/>
            <path class="cls-30" d="m134.11,38.97c1.83.38,3.03,2.18,2.68,4.03-.36,1.85-2.13,3.03-3.97,2.64-1.83-.39-3.02-2.19-2.66-4.03.36-1.83,2.12-3.01,3.95-2.63Z"/>
            <path class="cls-12" d="m137.17,42.82c1.1.13,1.9,1.12,1.79,2.22-.11,1.1-1.09,1.89-2.19,1.76-1.09-.13-1.89-1.13-1.78-2.23.11-1.1,1.09-1.88,2.18-1.76Z"/>
            <path class="cls-24" d="m142.66,42.58c1.1.13,1.9,1.12,1.79,2.22-.11,1.1-1.09,1.89-2.19,1.76-1.09-.13-1.89-1.13-1.78-2.23.11-1.1,1.09-1.88,2.18-1.76Z"/>
            <path class="cls-18" d="m143.16,47.55c1.1.13,1.9,1.12,1.79,2.22-.11,1.1-1.09,1.89-2.19,1.76-1.09-.13-1.89-1.13-1.78-2.23.11-1.1,1.09-1.88,2.18-1.76Z"/>
            <path class="cls-26" d="m143.16,52.37c1.1.13,1.9,1.12,1.79,2.22-.11,1.1-1.09,1.89-2.19,1.76-1.09-.13-1.89-1.13-1.78-2.23.11-1.1,1.09-1.88,2.18-1.76Z"/>
            <path class="cls-32" d="m146.58,48.76c1.83.38,3.03,2.18,2.68,4.03-.36,1.85-2.13,3.03-3.97,2.64-1.83-.39-3.02-2.19-2.66-4.03.36-1.83,2.12-3.01,3.95-2.63Z"/>
            <path class="cls-14" d="m149.64,52.61c1.1.13,1.9,1.12,1.79,2.22-.11,1.1-1.09,1.89-2.19,1.76-1.09-.13-1.89-1.13-1.78-2.23.11-1.1,1.09-1.88,2.18-1.76Z"/>
            <path class="cls-25" d="m136.18,37.41c1.1.13,1.9,1.12,1.79,2.22-.11,1.1-1.09,1.89-2.19,1.76-1.09-.13-1.89-1.13-1.78-2.23.11-1.1,1.09-1.88,2.18-1.76Z"/>
            <path class="cls-28" d="m139.6,33.8c1.83.38,3.03,2.18,2.68,4.03-.36,1.85-2.13,3.03-3.97,2.64-1.83-.39-3.02-2.19-2.66-4.03.36-1.83,2.12-3.01,3.95-2.63Z"/>
            <path class="cls-27" d="m146.08,38.97c1.83.38,3.03,2.18,2.68,4.03-.36,1.85-2.13,3.03-3.97,2.64-1.83-.39-3.02-2.19-2.66-4.03.36-1.83,2.12-3.01,3.95-2.63Z"/>
            <path class="cls-13" d="m149.14,42.82c1.1.13,1.9,1.12,1.79,2.22-.11,1.1-1.09,1.89-2.19,1.76-1.09-.13-1.89-1.13-1.78-2.23.11-1.1,1.09-1.88,2.18-1.76Z"/>
            <path class="cls-11" d="m142.66,37.65c1.1.13,1.9,1.12,1.79,2.22-.11,1.1-1.09,1.89-2.19,1.76-1.09-.13-1.89-1.13-1.78-2.23.11-1.1,1.09-1.88,2.18-1.76Z"/>
            <path class="cls-4" d="m131.33,24.57c-.82,2.12-2.43,3.19-2.43,3.19,0,0-3.17-.98-4.81-4.6-1.83-4.03-.49-6.5-.49-6.5l7.73,7.91Z"/>
            <path class="cls-33" d="m137.89.9c6.81,1.42,11.28,8.12,9.96,14.98-1.32,6.86-7.93,11.25-14.75,9.8-6.8-1.45-11.22-8.16-9.89-14.99,1.33-6.82,7.9-11.2,14.69-9.79Z"/>
            <g>
              <path class="cls-2" d="m118.6,24.57v-3.81h.5v1.57h1.98v-1.57h.5v3.81h-.5v-1.8h-1.98v1.8h-.5Z"/>
              <path class="cls-2" d="m123.35,23.95v-1.05h-1.04v-.44h1.04v-1.04h.44v1.04h1.04v.44h-1.04v1.05h-.44Z"/>
            </g>
            <g>
              <path class="cls-2" d="m145.86,24.57v-3.81h.5v1.57h1.98v-1.57h.5v3.81h-.5v-1.8h-1.98v1.8h-.5Z"/>
              <path class="cls-2" d="m150.62,23.95v-1.05h-1.04v-.44h1.04v-1.04h.44v1.04h1.04v.44h-1.04v1.05h-.44Z"/>
            </g>
            <g>
              <path class="cls-2" d="m130.52,12.56c0-1.11.3-1.97.89-2.6.59-.63,1.36-.94,2.3-.94.62,0,1.17.15,1.67.44.49.29.87.7,1.13,1.23.26.53.39,1.12.39,1.79s-.14,1.28-.41,1.82c-.27.53-.66.94-1.16,1.21-.5.27-1.04.41-1.62.41-.63,0-1.19-.15-1.68-.46-.49-.3-.87-.72-1.12-1.24-.25-.52-.38-1.08-.38-1.67Zm.91.01c0,.8.22,1.44.65,1.9.43.46.97.69,1.63.69s1.21-.23,1.64-.7c.43-.47.64-1.13.64-1.99,0-.54-.09-1.02-.28-1.42-.18-.4-.45-.72-.81-.94-.35-.22-.75-.33-1.19-.33-.62,0-1.16.21-1.61.64-.45.43-.68,1.15-.68,2.15Z"/>
              <path class="cls-2" d="m137.61,13.81v-.82h2.52v.82h-2.52Z"/>
            </g>
          </g>
          <g>
            <g>
              <path class="cls-6" d="m16.07,8.6l-8.16,24.01H.63L8.79,8.6h7.28Z"/>
              <path class="cls-6" d="m28.26,32.61h-6.71l3.36-9.9c.34-1.01.09-1.51-.76-1.51s-1.43.5-1.77,1.51l-3.36,9.9h-6.71l3.32-9.78c.78-2.29,2.2-4.21,4.28-5.78,2.07-1.56,4.23-2.35,6.47-2.35,2.56,0,4.3.91,5.23,2.73.73,1.42.66,3.39-.2,5.93l-3.14,9.25Z"/>
              <path class="cls-6" d="m70.16.63l-10.92,31.98h-6.71L63.45.63h6.71Z"/>
              <path class="cls-6" d="m75.34,26.03l-2.31,6.81c-.58.09-1.1.14-1.55.14-2.69,0-4.64-.87-5.84-2.6-1.2-1.73-1.36-3.91-.47-6.53.86-2.54,2.5-4.7,4.92-6.47s4.92-2.66,7.51-2.66c2.89,0,4.89.83,6,2.49,1.11,1.66,1.17,3.92.19,6.8l-2.92,8.6h-6.71l2.76-8.13c.31-.93.34-1.66.06-2.22-.27-.55-.8-.83-1.57-.83-.71,0-1.4.25-2.09.76-.68.5-1.14,1.1-1.38,1.79-.25.73-.22,1.33.09,1.79.31.47.82.7,1.54.7.58,0,1.18-.15,1.79-.46Z"/>
              <path class="cls-6" d="m99.24,8.6l-4.88,14.37c-.79,2.33-.33,3.5,1.38,3.5.73,0,1.43-.24,2.11-.73.67-.49,1.13-1.07,1.36-1.77.24-.71.21-1.32-.1-1.8-.31-.49-.82-.73-1.51-.73-.49,0-1.12.21-1.9.63l2.46-7.25c.81-.07,1.42-.11,1.83-.11,2.52,0,4.38.89,5.58,2.67,1.19,1.78,1.36,3.93.51,6.44-.87,2.57-2.52,4.73-4.95,6.49s-4.98,2.64-7.64,2.64c-1.34,0-2.55-.29-3.63-.86-1.08-.57-1.86-1.35-2.36-2.32-.86-1.69-.84-3.88.08-6.56l4.97-14.62h6.71Z"/>
            </g>
            <path class="cls-6" d="m52.38,17.28c-1.17-1.73-3.06-2.59-5.66-2.59s-5.2.89-7.62,2.66c-2.43,1.77-4.07,3.94-4.95,6.51-.88,2.58-.71,4.74.5,6.49,1.21,1.75,3.15,2.62,5.8,2.62,1.97,0,3.97-.57,6-1.69.22-.11.44-.23.64-.37,4.22-2.76,4.8-4.85,4.8-4.85h-6.73l-.37.35c-.85.66-1.6.98-2.27.98-.82,0-1.37-.35-1.64-1.06-.27-.7-.21-1.62.18-2.76.37-1.09.94-1.98,1.7-2.68.76-.7,1.56-1.05,2.4-1.05,1.26,0,1.78.65,1.58,1.95h-3.41c-.41.56-.71,1.14-.91,1.72-.14.42-.22.89-.24,1.39h10.17c.24-.56.4-.97.49-1.23.86-2.53.7-4.66-.47-6.39Z"/>
          </g>
          <g>
            <g>
              <path class="cls-1" d="m15.44,7.97L7.28,31.98H0L8.16,7.97h7.28Z"/>
              <path class="cls-1" d="m27.63,31.98h-6.71l3.36-9.9c.34-1.01.09-1.51-.76-1.51s-1.43.5-1.77,1.51l-3.36,9.9h-6.71l3.32-9.78c.78-2.29,2.2-4.21,4.28-5.78,2.07-1.56,4.23-2.35,6.47-2.35,2.56,0,4.3.91,5.23,2.73.73,1.42.66,3.39-.2,5.93l-3.14,9.25Z"/>
              <path class="cls-1" d="m69.53,0l-10.92,31.98h-6.71L62.82,0h6.71Z"/>
              <path class="cls-1" d="m74.71,25.4l-2.31,6.81c-.58.09-1.1.14-1.55.14-2.69,0-4.64-.87-5.84-2.6-1.2-1.73-1.36-3.91-.47-6.53.86-2.54,2.5-4.7,4.92-6.47s4.92-2.66,7.51-2.66c2.89,0,4.89.83,6,2.49,1.11,1.66,1.17,3.92.19,6.8l-2.92,8.6h-6.71l2.76-8.13c.31-.93.34-1.66.06-2.22-.27-.55-.8-.83-1.57-.83-.71,0-1.4.25-2.09.76-.68.5-1.14,1.1-1.38,1.79-.25.73-.22,1.33.09,1.79.31.47.82.7,1.54.7.58,0,1.18-.15,1.79-.46Z"/>
              <path class="cls-1" d="m98.61,7.97l-4.88,14.37c-.79,2.33-.33,3.5,1.38,3.5.73,0,1.43-.24,2.11-.73.67-.49,1.13-1.07,1.36-1.77.24-.71.21-1.32-.1-1.8-.31-.49-.82-.73-1.51-.73-.49,0-1.12.21-1.9.63l2.46-7.25c.81-.07,1.42-.11,1.83-.11,2.52,0,4.38.89,5.58,2.67,1.19,1.78,1.36,3.93.51,6.44-.87,2.57-2.52,4.73-4.95,6.49s-4.98,2.64-7.64,2.64c-1.34,0-2.55-.29-3.63-.86-1.08-.57-1.86-1.35-2.36-2.32-.86-1.69-.84-3.88.08-6.56l4.97-14.62h6.71Z"/>
            </g>
            <path class="cls-1" d="m51.75,16.65c-1.17-1.73-3.06-2.59-5.66-2.59s-5.2.89-7.62,2.66c-2.43,1.77-4.07,3.94-4.95,6.51-.88,2.58-.71,4.74.5,6.49,1.21,1.75,3.15,2.62,5.8,2.62,1.97,0,3.97-.57,6-1.69.22-.11.44-.23.64-.37,4.22-2.76,4.8-4.85,4.8-4.85h-6.73l-.37.35c-.85.66-1.6.98-2.27.98-.82,0-1.37-.35-1.64-1.06-.27-.7-.21-1.62.18-2.76.37-1.09.94-1.98,1.7-2.68.76-.7,1.56-1.05,2.4-1.05,1.26,0,1.78.65,1.58,1.95h-3.41c-.41.56-.71,1.14-.91,1.72-.14.42-.22.89-.24,1.39h10.17c.24-.56.4-.97.49-1.23.86-2.53.7-4.66-.47-6.39Z"/>
          </g>
          <g>
            <path class="cls-1" d="m52.94,42.99l.29-.59c.5.51,1.39.88,2.32.88,1.31,0,1.88-.57,1.88-1.29,0-1.99-4.32-.77-4.32-3.46,0-1.07.8-1.99,2.59-1.99.79,0,1.61.24,2.18.64l-.25.61c-.6-.4-1.3-.6-1.92-.6-1.28,0-1.85.59-1.85,1.32,0,1.99,4.32.79,4.32,3.43,0,1.07-.82,1.98-2.62,1.98-1.05,0-2.08-.38-2.61-.94Z"/>
            <path class="cls-1" d="m59.16,43.36c0-.32.24-.56.53-.56s.54.24.54.56-.25.57-.54.57-.53-.25-.53-.57Z"/>
            <path class="cls-1" d="m66.29,41.94h-3.91l-.84,1.94h-.77l3.21-7.26h.73l3.21,7.26h-.78l-.84-1.94Zm-.27-.62l-1.68-3.9-1.68,3.9h3.37Z"/>
            <path class="cls-1" d="m68.47,43.36c0-.32.24-.56.53-.56s.54.24.54.56-.25.57-.54.57-.53-.25-.53-.57Z"/>
            <path class="cls-1" d="m78.49,36.18v7.7h-.68v-1.08c-.43.74-1.16,1.13-2.03,1.13-1.5,0-2.63-1.13-2.63-2.78s1.12-2.77,2.63-2.77c.84,0,1.56.37,2,1.08v-3.28h.71Zm-.7,4.97c0-1.28-.84-2.13-1.95-2.13s-1.96.85-1.96,2.13.84,2.13,1.96,2.13,1.95-.85,1.95-2.13Z"/>
            <path class="cls-1" d="m85.06,41.38h-4.41c.08,1.14.92,1.9,2.08,1.9.64,0,1.21-.24,1.61-.72l.4.48c-.47.58-1.2.89-2.04.89-1.64,0-2.77-1.16-2.77-2.78s1.09-2.77,2.58-2.77,2.56,1.13,2.56,2.77c0,.06,0,.15,0,.23Zm-4.41-.55h3.74c-.09-1.07-.84-1.82-1.87-1.82s-1.77.75-1.86,1.82Z"/>
            <path class="cls-1" d="m88.68,40.25c0-2.13,1.56-3.69,3.68-3.69,1.02,0,1.94.35,2.57,1.06l-.47.49c-.57-.6-1.27-.86-2.08-.86-1.69,0-2.97,1.29-2.97,3.01s1.27,3.01,2.97,3.01c.8,0,1.5-.26,2.08-.87l.47.49c-.62.71-1.54,1.07-2.58,1.07-2.11,0-3.67-1.57-3.67-3.69Z"/>
            <path class="cls-1" d="m95.89,43.36c0-.32.24-.56.53-.56s.54.24.54.56-.25.57-.54.57-.53-.25-.53-.57Z"/>
            <path class="cls-1" d="m104.46,36.61l-3.11,7.26h-.73l-3.11-7.26h.8l2.69,6.31,2.71-6.31h.75Z"/>
            <path class="cls-1" d="m105.01,43.36c0-.32.24-.56.53-.56s.54.24.54.56-.25.57-.54.57-.53-.25-.53-.57Z"/>
          </g>
          <g>
            <path class="cls-5" d="m2.73,50.16v2.85h3.63v.66h-3.63v3.08h-.74v-7.26h4.81v.66H2.73Z"/>
            <path class="cls-5" d="m8.33,49.5h.74v7.26h-.74v-7.26Z"/>
            <path class="cls-5" d="m11.35,49.5h.74v6.6h3.93v.66h-4.67v-7.26Z"/>
            <path class="cls-5" d="m18.62,50.16h-2.47v-.66h5.67v.66h-2.47v6.6h-.74v-6.6Z"/>
            <path class="cls-5" d="m27.8,56.76l-1.6-2.33c-.18.02-.36.03-.56.03h-1.88v2.3h-.74v-7.26h2.63c1.78,0,2.87.93,2.87,2.49,0,1.14-.58,1.94-1.6,2.28l1.71,2.49h-.81Zm-.04-4.77c0-1.16-.74-1.83-2.15-1.83h-1.86v3.64h1.86c1.4,0,2.15-.67,2.15-1.82Z"/>
            <path class="cls-5" d="m34.65,54.82h-3.91l-.84,1.94h-.77l3.21-7.26h.73l3.21,7.26h-.78l-.84-1.94Zm-.27-.62l-1.68-3.9-1.68,3.9h3.37Z"/>
            <path class="cls-5" d="m36.81,53.13c0-2.13,1.56-3.69,3.68-3.69,1.02,0,1.94.35,2.57,1.06l-.47.49c-.57-.6-1.27-.86-2.08-.86-1.69,0-2.97,1.29-2.97,3.01s1.27,3.01,2.97,3.01c.8,0,1.5-.26,2.08-.87l.47.49c-.62.71-1.54,1.07-2.58,1.07-2.11,0-3.67-1.57-3.67-3.69Z"/>
            <path class="cls-5" d="m44.64,49.5h.74v7.26h-.74v-7.26Z"/>
            <path class="cls-5" d="m47.04,53.13c0-2.12,1.56-3.69,3.69-3.69s3.68,1.57,3.68,3.69-1.57,3.69-3.68,3.69-3.69-1.58-3.69-3.69Zm6.63,0c0-1.73-1.25-3.01-2.94-3.01s-2.96,1.28-2.96,3.01,1.26,3.01,2.96,3.01,2.94-1.28,2.94-3.01Zm-2.22-5.51h.95l-1.62,1.29h-.7l1.37-1.29Z"/>
            <path class="cls-5" d="m61.94,49.5v7.26h-.61l-4.51-5.89v5.89h-.74v-7.26h.61l4.52,5.89v-5.89h.73Z"/>
            <path class="cls-5" d="m69.25,54.25v2.51h-.73v-2.51l-2.81-4.75h.79l2.41,4.08,2.41-4.08h.74l-2.81,4.75Z"/>
            <path class="cls-5" d="m83.12,49.5v7.26h-.71v-5.81l-2.76,4.89h-.35l-2.76-4.86v5.78h-.71v-7.26h.61l3.05,5.39,3.02-5.39h.61Z"/>
            <path class="cls-5" d="m89.8,54.82h-3.91l-.84,1.94h-.77l3.21-7.26h.73l3.21,7.26h-.78l-.84-1.94Zm-.27-.62l-1.68-3.9-1.68,3.9h3.37Zm-1.62-5.29h-.7l1.37-1.29h.95l-1.62,1.29Z"/>
            <path class="cls-5" d="m91.91,55.88l.29-.59c.5.51,1.39.88,2.32.88,1.31,0,1.88-.57,1.88-1.29,0-1.99-4.32-.77-4.32-3.46,0-1.07.8-1.99,2.59-1.99.79,0,1.61.24,2.18.64l-.25.61c-.6-.4-1.3-.6-1.92-.6-1.28,0-1.85.59-1.85,1.32,0,1.99,4.32.79,4.32,3.43,0,1.07-.82,1.98-2.62,1.98-1.05,0-2.08-.38-2.61-.94Z"/>
            <path class="cls-5" d="m100.76,56.24c0-.32.24-.56.53-.56s.54.24.54.56-.25.57-.54.57-.53-.25-.53-.57Z"/>
            <path class="cls-5" d="m102.89,56.24c0-.32.24-.56.53-.56s.54.24.54.56-.25.57-.54.57-.53-.25-.53-.57Z"/>
            <path class="cls-5" d="m105.01,56.24c0-.32.24-.56.53-.56s.54.24.54.56-.25.57-.54.57-.53-.25-.53-.57Z"/>
          </g>
          <path class="cls-3" d="m185.05,67.21c0,3.26-22.18,5.9-49.53,5.9s-49.53-2.64-49.53-5.9,22.18-5.9,49.53-5.9,49.53,2.64,49.53,5.9Z"/>
        </g>
      </g>
    </g>
  </g>
</svg>