<?xml version="1.0" encoding="utf-8"?>
<!-- Generator: Adobe Illustrator 16.0.0, SVG Export Plug-In . SVG Version: 6.00 Build 0)  -->
<!DOCTYPE svg PUBLIC "-//W3C//DTD SVG 1.1//EN" "http://www.w3.org/Graphics/SVG/1.1/DTD/svg11.dtd">
<svg version="1.1" id="Capa_1" xmlns="http://www.w3.org/2000/svg" xmlns:xlink="http://www.w3.org/1999/xlink" x="0px" y="0px"
	 width="410.126px" height="261.306px" viewBox="0 0 410.126 261.306" enable-background="new 0 0 410.126 261.306"
	 xml:space="preserve">
<g>
	<path fill="#003B57" d="M410.087,75.9c0.444,10.905-2.984,20.678-6.705,30.13c-0.117,0.298-1.381,0.147-1.052-0.76
		c10.1-27.896-16.607-73.145-49.187-79.283c-6.81-1.283-13.01-0.723-21.289-0.326c-20.867,3.855-38.785,13.608-45.477,34.021
		c-2.282-0.787-4.312,0.451-4.286,2.332c0.057,4.372-2.531,12.911-1.923,21.399c1.276,17.776,24.241,34.617,31.272,42.952
		c-2.438,3.686-11.59-3.275-12.33-1.351c-0.567,1.474-0.625,3.592,0.998,4.106c0.69,0.219,8.564,4.945,24.816,9.255
		c5.455,0.011,13.28,0.586,21.672-0.953c35.893-13.098,52.393-45.079,45.419-73.43c-11.114-12.475-10.83-13.666-12.553-16.259
		c-4.31-4.14-4.837-5.906-3.722-4.948c3.327,2.858,12.872,6.096,19.126,20.74c3.867,6.959,4.859,16.344,3.556,22.071
		c-0.322,12.539-2.495,21.15-6.918,31.356c-10.319,32.094-39.421,41.507-52.054,41.507c4.196-2.722,12.929-2.793,12.702-5.784
		c-4.877,0.794-14.099,2.241-19.031,2.241c-37.279,0-55.59-12.22-66.477-37.737c-4.99-11.695-10.547-27.128-10.547-41.506
		c0-45.249,28.918-86.416,85.054-73.147C374.835,2.526,408.177,29.062,410.087,75.9"/>
	<path fill="#003B57" d="M366.17,84.405c9.129,11.17-9.028,20.705-17.521,21.476c-12.021,1.092-15.536-6.79-29.031-19.832
		c-17.636-4.196-15.594-25.799,4.876-22.908C336.458,60.589,364.639,52.198,366.17,84.405"/>
	<path fill="#646569" d="M72.006,260.727H39.709C13.236,260.727,0,245.967,0,216.447v-0.405
		c0.265-29.43,13.545-44.145,39.841-44.145h32.297v18.9H36.135c-5.913,0-10.324,2.048-13.236,6.143
		c-2.912,4.096-4.368,10.643-4.368,19.642v1.08c0,16.112,5.824,24.165,17.472,24.165h36.003V260.727z"/>
	<rect x="81.766" y="172.23" fill="#646569" width="20.899" height="88.83"/>
	<path fill="#646569" d="M151.5,190.86c-0.431,0-0.818,0.451-1.16,1.351l-23.078,68.85h-19.081l26.043-76.95
		c1.461-4.319,3.717-7.446,6.769-9.382c3.049-1.935,6.639-2.903,10.765-2.903s7.714,0.969,10.765,2.903
		c3.05,1.936,5.307,5.062,6.769,9.382l26.043,76.95h-19.081l-23.207-68.85c-0.344-0.899-0.689-1.351-1.031-1.351H151.5z"/>
	<polygon fill="#646569" points="228.783,191.319 228.783,261.249 209.975,261.249 209.975,191.319 189.152,191.319 
		189.152,172.418 248.397,172.418 248.397,191.319 	"/>
	<path fill="#646569" d="M327.007,191.196h-45.073c-2.004,0-3.723,0.789-5.16,2.362c-1.438,1.576-2.155,3.442-2.155,5.603
		s0.673,4.006,2.024,5.535c1.35,1.531,3.156,2.295,5.422,2.295h44.942v18.899h-45.073c-2.004,0-3.723,0.789-5.16,2.363
		c-1.438,1.575-2.155,3.533-2.155,5.872c0,2.251,0.718,4.164,2.155,5.737c1.438,1.576,3.201,2.362,5.291,2.362h44.942v18.9h-42.852
		c-5.141,0-9.473-0.764-13-2.295c-3.527-1.529-6.401-3.577-8.622-6.143s-3.834-5.468-4.834-8.707
		c-1.002-3.24-1.502-6.569-1.502-9.99c0-1.62,0.15-3.352,0.457-5.197c0.304-1.844,0.826-3.578,1.567-5.198
		c0.739-1.62,1.698-3.059,2.874-4.319c1.176-1.26,2.634-2.205,4.377-2.835c-3.484-1.709-5.879-4.253-7.186-7.628
		s-1.96-7.357-1.96-11.947c0-7.83,2.395-13.882,7.186-18.158c4.789-4.273,11.671-6.412,20.643-6.412h42.852V191.196z"/>
	<path fill="#646569" d="M336.354,261.306v-18.9h28.854c7.447,0,13.16-1.731,17.143-5.197c3.98-3.465,5.973-8.303,5.973-14.513
		v-50.22h21.719v50.085c0,5.94-0.957,11.296-2.87,16.065c-1.915,4.771-4.758,8.842-8.532,12.217
		c-3.776,3.375-8.481,5.964-14.117,7.763c-5.638,1.802-12.23,2.7-19.779,2.7H336.354z"/>
</g>
</svg>
